# xmcd
#
# Track frame offsets:
#	150
#	32607
#	52499
#	84973
#	100493
#	118576
#	141299
#	178374
#	194122
#	228906
#	258671
#	273401
#	306426
#	314958
#	337058
#	354137
#
# Disc length: 4774 seconds
#
# Revision: 0
# Processed by: cddbd v1.5.2PL0 Copyright (c) Steve Scherf et al.
# Submitted via: audiograbber 1.83.01
#
DISCID=0512a410
DTITLE=Alex Harvey - The Last of the Teenage Idos The Highliths
DYEAR=1900
DGENRE=Rock
TTITLE0=The Faith Healer
TTITLE1=Vambo Marple Eye
TTITLE2=The Last of teh Teenage Idols 1-2-3
TTITLE3=Giddy Up A Ding Dong
TTITLE4=Next
TTITLE5=The Hot City Symphony Part1:Vamo
TTITLE6=The Hot City Symphony Part2 The Man in The Jar
TTITLE7=Sergant Fury
TTITLE8=Anthem
TTITLE9=The Faith Healer
TTITLE10=Action Strasse
TTITLE11=The Tale of the Gigant Stone Eater
TTITLE12=Ribs and Balls
TTITLE13=Shark Teeth
TTITLE14=Tomorrow belongs To Me
TTITLE15=To Be Continued
EXTD=
EXTT0=
EXTT1=
EXTT2=
EXTT3=
EXTT4=
EXTT5=
EXTT6=
EXTT7=
EXTT8=
EXTT9=
EXTT10=
EXTT11=
EXTT12=
EXTT13=
EXTT14=
EXTT15=
PLAYORDER=
